<svg preserveAspectRatio="none" width="100%" height="100%" overflow="visible" style="display: block;" viewBox="0 0 48 48" fill="none" xmlns="http://www.w3.org/2000/svg">
<g id="download_done">
<mask id="mask0_0_12" style="mask-type:alpha" maskUnits="userSpaceOnUse" x="0" y="0" width="48" height="48">
<rect id="Bounding box" width="48" height="48" fill="var(--fill-0, #D9D9D9)"/>
</mask>
<g mask="url(#mask0_0_12)">
<path id="download_done_2" d="M19 25.5435L36.4825 8.061C36.8768 7.66667 37.3447 7.47783 37.886 7.4945C38.4273 7.51117 38.895 7.71667 39.289 8.111C39.6833 8.505 39.8805 8.968 39.8805 9.5C39.8805 10.032 39.6833 10.495 39.289 10.889L20.4175 29.789C20.0232 30.1833 19.5507 30.3805 19 30.3805C18.4493 30.3805 17.9768 30.1833 17.5825 29.789L8.711 20.889C8.31667 20.495 8.12317 20.032 8.1305 19.5C8.13783 18.968 8.3385 18.505 8.7325 18.111C9.12683 17.7167 9.59467 17.5195 10.136 17.5195C10.6773 17.5195 11.145 17.7167 11.539 18.111L19 25.5435ZM11.274 40.7065C10.7087 40.7065 10.2373 40.5177 9.86 40.14C9.48233 39.7627 9.2935 39.2913 9.2935 38.726C9.2935 38.161 9.48233 37.6897 9.86 37.312C10.2373 36.9343 10.7087 36.7455 11.274 36.7455H36.726C37.2913 36.7455 37.7675 36.9343 38.1545 37.312C38.5415 37.6897 38.735 38.161 38.735 38.726C38.735 39.2913 38.5415 39.7627 38.1545 40.14C37.7675 40.5177 37.2913 40.7065 36.726 40.7065H11.274Z" fill="var(--fill-0, #FF8C4D)"/>
</g>
</g>
</svg>
